<svg width="72" height="72" viewBox="0 0 72 72" fill="none" xmlns="http://www.w3.org/2000/svg">
<path d="M53.3484 64.8792C54.612 61.1892 55.8396 56.3256 55.8684 51.336C55.926 41.0184 50.7384 35.7192 48.9348 29.2932C47.1312 22.8672 50.3424 14.0724 50.3424 14.0724" stroke="black" stroke-width="2" stroke-miterlimit="10"/>
<path d="M40.1112 12.2976C40.1112 12.2976 42.4368 16.1208 47.0016 15.4692C51.5664 14.8176 53.2584 10.944 53.1972 8.32324" stroke="black" stroke-width="2" stroke-miterlimit="10"/>
<path d="M18.6516 64.8792C17.388 61.1892 16.1604 56.3256 16.1316 51.336C16.074 41.0184 21.2616 35.7192 23.0652 29.2932C24.8688 22.8672 21.6576 14.0724 21.6576 14.0724" stroke="black" stroke-width="2" stroke-miterlimit="10"/>
<path d="M31.8888 12.2976C31.8888 12.2976 29.5632 16.1208 24.9984 15.4692C20.4336 14.8176 18.7416 10.944 18.8028 8.32324" stroke="black" stroke-width="2" stroke-miterlimit="10"/>
<path d="M36.5328 64.8792V51.0912" stroke="black" stroke-width="2" stroke-miterlimit="10"/>
<path d="M31.4172 48.978C34.236 51.7968 38.8044 51.7968 41.6232 48.978" stroke="black" stroke-width="2" stroke-miterlimit="10"/>
<path d="M37.6668 31.7268C37.0332 31.0932 36.0072 31.0932 35.3736 31.7268" stroke="black" stroke-width="2" stroke-miterlimit="10"/>
</svg>
