<svg width="96" height="96" viewBox="0 0 96 96" fill="none" xmlns="http://www.w3.org/2000/svg">
<path d="M50.2674 63.7939C48.5326 60.0086 42.5939 59.2325 40.9834 63.0595C39.8939 65.6567 40.5867 68.409 46.401 71.1136C51.7832 73.6152 52.5469 77.4423 50.0424 80.5529C47.3069 83.956 41.2025 83.5978 39.2071 78.4393" stroke="black" stroke-width="2" stroke-miterlimit="10"/>
<path d="M32.4158 17.1171C30.681 13.3319 24.7423 12.5557 23.1318 16.3828C22.0424 18.9799 22.7351 21.7323 28.5495 24.4369C33.9316 26.9385 34.6954 30.7655 32.1908 33.8761C29.4554 37.2792 23.3509 36.921 21.3555 31.7626" stroke="black" stroke-width="2" stroke-miterlimit="10"/>
<path d="M27.9278 47.411C40.3637 47.411 50.445 37.2454 50.445 24.7055C50.445 12.1656 40.3637 2 27.9278 2C15.4918 2 5.4105 12.1656 5.4105 24.7055C5.4105 37.2454 15.4918 47.411 27.9278 47.411Z" stroke="black" stroke-width="2" stroke-miterlimit="10"/>
<path d="M69.0722 66.2417C81.5082 66.2417 91.5895 56.0761 91.5895 43.5362C91.5895 30.9963 81.5082 20.8307 69.0722 20.8307C56.6363 20.8307 46.555 30.9963 46.555 43.5362C46.555 56.0761 56.6363 66.2417 69.0722 66.2417Z" stroke="black" stroke-width="2" stroke-miterlimit="10"/>
<path d="M73.5544 35.9418C71.8195 32.1566 65.8809 31.3804 64.2704 35.2075C63.1809 37.8046 63.8737 40.557 69.688 43.2616C75.0701 45.7632 75.8339 49.5902 73.3294 52.7008C70.5939 56.1039 64.4894 55.7457 62.4941 50.5873" stroke="black" stroke-width="2" stroke-miterlimit="10"/>
<path d="M47.153 48.7245C46.6971 48.6946 46.2471 48.6767 45.7853 48.6767C33.3513 48.6767 23.268 58.8443 23.268 71.3822C23.268 83.9201 33.3513 94.0877 45.7853 94.0877C58.2192 94.0877 68.3025 83.9201 68.3025 71.3822C68.3025 69.597 68.0894 67.8597 67.7045 66.1939" stroke="black" stroke-width="2" stroke-miterlimit="10"/>
</svg>
