<svg width="96" height="96" viewBox="0 0 96 96" fill="none" xmlns="http://www.w3.org/2000/svg">
<path d="M50.0947 66.7546C48.5294 63.3393 43.1711 62.639 41.718 66.092C40.735 68.4353 41.3601 70.9187 46.6062 73.359C51.4623 75.6161 52.1514 79.0691 49.8917 81.8757C47.4235 84.9462 41.9157 84.623 40.1153 79.9687" stroke="black" stroke-width="2" stroke-miterlimit="10"/>
<path d="M33.9878 24.6397C32.4225 21.2244 27.0642 20.5241 25.6111 23.9771C24.6281 26.3204 25.2532 28.8038 30.4993 31.244C35.3554 33.5011 36.0445 36.9542 33.7848 39.7607C31.3166 42.8313 25.8088 42.5081 24.0084 37.8538" stroke="black" stroke-width="2" stroke-miterlimit="10"/>
<path d="M29.9384 51.9729C41.1589 51.9729 50.2549 42.8008 50.2549 31.4864C50.2549 20.1721 41.1589 11 29.9384 11C18.7178 11 9.62177 20.1721 9.62177 31.4864C9.62177 42.8008 18.7178 51.9729 29.9384 51.9729Z" stroke="black" stroke-width="2" stroke-miterlimit="10"/>
<path d="M67.0617 68.9632C78.2822 68.9632 87.3782 59.7911 87.3782 48.4767C87.3782 37.1624 78.2822 27.9903 67.0617 27.9903C55.8411 27.9903 46.7451 37.1624 46.7451 48.4767C46.7451 59.7911 55.8411 68.9632 67.0617 68.9632Z" stroke="black" stroke-width="2" stroke-miterlimit="10"/>
<path d="M71.1057 41.6246C69.5405 38.2093 64.1822 37.509 62.7291 40.962C61.7461 43.3053 62.3712 45.7887 67.6172 48.229C72.4733 50.4861 73.1625 53.9391 70.9027 56.7457C68.4346 59.8162 62.9267 59.493 61.1264 54.8387" stroke="black" stroke-width="2" stroke-miterlimit="10"/>
<path d="M47.2846 53.158C46.8733 53.131 46.4673 53.1149 46.0506 53.1149C34.8319 53.1149 25.734 62.2888 25.734 73.6013C25.734 84.9138 34.8319 94.0877 46.0506 94.0877C57.2693 94.0877 66.3672 84.9138 66.3672 73.6013C66.3672 71.9906 66.1748 70.423 65.8276 68.9201" stroke="black" stroke-width="2" stroke-miterlimit="10"/>
</svg>
