<svg width="72" height="72" viewBox="0 0 72 72" fill="none" xmlns="http://www.w3.org/2000/svg">
<path d="M2.53564 48.2336C20.5143 22.6883 50.5445 27.4253 67.8177 41.7389" stroke="black" stroke-width="2" stroke-miterlimit="10"/>
<path d="M49.9573 22.1444C30.3904 16.8399 10.9772 26.0735 2.53564 48.2336" stroke="black" stroke-width="2" stroke-miterlimit="10"/>
<path d="M2.53564 48.2336C14.1536 54.886 42.9778 68.9118 60.9801 43.2759" stroke="black" stroke-width="2" stroke-miterlimit="10"/>
<path d="M18.6857 34.0264C18.3349 35.2481 18.1497 36.5407 18.1497 37.8767C18.1497 45.6128 24.4198 51.8869 32.1598 51.8869C39.8999 51.8869 46.17 45.6168 46.17 37.8767C46.17 35.2757 45.4606 32.8402 44.2231 30.7515" stroke="black" stroke-width="2" stroke-miterlimit="10"/>
<path d="M32.1559 42.8974C34.6851 42.8974 36.7353 40.8472 36.7353 38.318C36.7353 35.7889 34.6851 33.7386 32.1559 33.7386C29.6268 33.7386 27.5765 35.7889 27.5765 38.318C27.5765 40.8472 29.6268 42.8974 32.1559 42.8974Z" stroke="black" stroke-width="2" stroke-miterlimit="10"/>
<path d="M43.9355 30.7318C50.9819 31.1653 58.1978 24.1228 58.1978 17.6005" stroke="black" stroke-width="2" stroke-miterlimit="10"/>
<path d="M53.7445 33.4629C57.4175 35.0747 65.1536 33.6205 69 27.6854" stroke="black" stroke-width="2" stroke-miterlimit="10"/>
<path d="M44.7394 56.4188C47.4587 56.3006 50.2844 58.4445 51.0686 61.215" stroke="black" stroke-width="2" stroke-miterlimit="10"/>
<path d="M51.8214 52.9785C54.5406 52.8603 57.0904 54.3342 58.2018 57.0417" stroke="black" stroke-width="2" stroke-miterlimit="10"/>
<path d="M57.1298 48.2336C59.1831 47.6149 62.3477 49.0809 63.8492 51.1696" stroke="black" stroke-width="2" stroke-miterlimit="10"/>
</svg>
