<svg width="72" height="72" viewBox="0 0 72 72" fill="none" xmlns="http://www.w3.org/2000/svg">
<path d="M17 34C22.024 21.6702 37.5311 15.8475 52 18.7233" stroke="black" stroke-width="2" stroke-miterlimit="10"/>
<path d="M55 35C50.804 27.1518 42.083 21.861 33 20" stroke="black" stroke-width="2" stroke-miterlimit="10"/>
<path d="M44.478 62.4352C44.478 62.4352 43.8408 67.522 49.4604 69.8548" stroke="black" stroke-width="2" stroke-miterlimit="10"/>
<path d="M27.522 62.4352C27.522 62.4352 28.1592 67.522 22.5396 69.8548" stroke="black" stroke-width="2" stroke-miterlimit="10"/>
<path d="M23.1912 40.3636C23.1912 40.3636 26.8488 43.8592 32.4144 42.1384" stroke="black" stroke-width="2" stroke-miterlimit="10"/>
<path d="M49.2408 40.3636C49.2408 40.3636 45.5832 43.8592 40.0176 42.1384" stroke="black" stroke-width="2" stroke-miterlimit="10"/>
<path d="M58.4568 36.1732C57.9564 34.042 55.2168 34.5064 54.4968 34.6648C54.6048 33.1096 54.7056 31.45 54.81 29.6716C55.548 16.9708 45.6048 9.35681 36 9.35681C26.3952 9.35681 16.452 16.9708 17.19 29.6716C17.2944 31.45 17.3952 33.1096 17.5032 34.6648C16.7868 34.5028 14.0436 34.0384 13.5432 36.1732C13.1724 37.7536 13.4892 42.0772 14.868 43.906C16.0452 45.4648 18.144 46.0084 18.7344 46.138C19.0584 47.956 19.4472 49.576 19.9296 51.0628C21.6792 56.4304 28.9152 66.8848 35.9964 66.8848C43.0776 66.8848 50.3136 56.4304 52.0632 51.0628C52.5492 49.576 52.9344 47.956 53.2584 46.138C53.8524 46.012 55.9512 45.4684 57.1248 43.906C58.5036 42.0772 58.8204 37.7536 58.4496 36.1732H58.4568Z" stroke="black" stroke-width="2" stroke-miterlimit="10"/>
<path d="M26 12C26.1077 8.03813 30.4279 3 36 3C41.5721 3 45.8923 8.03813 46 12" stroke="black" stroke-width="2" stroke-miterlimit="10"/>
</svg>
