<svg width="72" height="72" viewBox="0 0 72 72" fill="none" xmlns="http://www.w3.org/2000/svg">
<path d="M44.478 58.4352C44.478 58.4352 43.8408 63.522 49.4604 65.8548" stroke="black" stroke-width="2" stroke-miterlimit="10"/>
<path d="M27.522 58.4352C27.522 58.4352 28.1592 63.522 22.5396 65.8548" stroke="black" stroke-width="2" stroke-miterlimit="10"/>
<path d="M23.1912 36.3636C23.1912 36.3636 26.8488 39.8592 32.4144 38.1384" stroke="black" stroke-width="2" stroke-miterlimit="10"/>
<path d="M49.2408 36.3636C49.2408 36.3636 45.5832 39.8592 40.0176 38.1384" stroke="black" stroke-width="2" stroke-miterlimit="10"/>
<path d="M58.4568 32.1732C57.9564 30.042 55.2168 30.5064 54.4968 30.6648C54.6048 29.1096 54.7056 27.45 54.81 25.6716C55.548 12.9708 45.6048 5.35681 36 5.35681C26.3952 5.35681 16.452 12.9708 17.19 25.6716C17.2944 27.45 17.3952 29.1096 17.5032 30.6648C16.7868 30.5028 14.0436 30.0384 13.5432 32.1732C13.1724 33.7536 13.4892 38.0772 14.868 39.906C16.0452 41.4648 18.144 42.0084 18.7344 42.138C19.0584 43.956 19.4472 45.576 19.9296 47.0628C21.6792 52.4304 28.9152 62.8848 35.9964 62.8848C43.0776 62.8848 50.3136 52.4304 52.0632 47.0628C52.5492 45.576 52.9344 43.956 53.2584 42.138C53.8524 42.012 55.9512 41.4684 57.1248 39.906C58.5036 38.0772 58.8204 33.7536 58.4496 32.1732H58.4568Z" stroke="black" stroke-width="2" stroke-miterlimit="10"/>
</svg>
