<svg width="72" height="72" viewBox="0 0 72 72" fill="none" xmlns="http://www.w3.org/2000/svg">
<path d="M58.5648 20.7271H13.4352V36.1581H58.5648V20.7271Z" stroke="black" stroke-width="2" stroke-miterlimit="10"/>
<path d="M56.9741 36.1581H15.0259V62.7065H56.9741V36.1581Z" stroke="black" stroke-width="2" stroke-miterlimit="10"/>
<path d="M36 20.7271V62.7065" stroke="black" stroke-width="2" stroke-miterlimit="10"/>
<path d="M36 20.727C36 20.727 39.4349 12.7944 44.002 10.075C51.0733 5.86558 55.6995 15.1179 47.76 18.9106C43.0747 21.1473 36 20.727 36 20.727V20.727Z" stroke="black" stroke-width="2" stroke-miterlimit="10"/>
<path d="M35.9999 20.727C35.9999 20.727 32.565 12.7944 27.9979 10.075C20.9266 5.86558 16.3004 15.1179 24.24 18.9106C28.9252 21.1473 35.9999 20.727 35.9999 20.727V20.727Z" stroke="black" stroke-width="2" stroke-miterlimit="10"/>
<path d="M36 20.7271C42.453 21.0396 49.5069 23.509 47.0862 32.428C44.6689 41.3434 47.0653 43.5836 48.3157 44.7019" stroke="black" stroke-width="2" stroke-miterlimit="10"/>
<path d="M36 20.7271C21.986 28.6978 19.2562 44.3199 30.9397 58.9174" stroke="black" stroke-width="2" stroke-miterlimit="10"/>
</svg>
