<svg width="96" height="96" viewBox="0 0 96 96" fill="none" xmlns="http://www.w3.org/2000/svg">
<path d="M79.6656 36.31H16.8993V57.7715H79.6656V36.31Z" stroke="black" stroke-width="2" stroke-miterlimit="10"/>
<path d="M77.4533 57.7715H19.1116V94.6951H77.4533V57.7715Z" stroke="black" stroke-width="2" stroke-miterlimit="10"/>
<path d="M48.2824 36.31V94.6951" stroke="black" stroke-width="2" stroke-miterlimit="10"/>
<path d="M48.2824 36.31C48.2824 36.31 53.0597 25.2773 59.4117 21.4951C69.2464 15.6406 75.6805 28.5088 64.6382 33.7837C58.122 36.8944 48.2824 36.31 48.2824 36.31V36.31Z" stroke="black" stroke-width="2" stroke-miterlimit="10"/>
<path d="M48.2824 36.31C48.2824 36.31 43.5051 25.2773 37.1531 21.4951C27.3184 15.6406 20.8843 28.5088 31.9266 33.7837C38.4428 36.8944 48.2824 36.31 48.2824 36.31V36.31Z" stroke="black" stroke-width="2" stroke-miterlimit="10"/>
<path d="M48.2824 36.31C57.2573 36.7447 67.0679 40.1792 63.7011 52.5836C60.3391 64.9833 63.6721 68.0989 65.4111 69.6543" stroke="black" stroke-width="2" stroke-miterlimit="10"/>
<path d="M48.2824 36.31C28.7917 47.3958 24.995 69.123 41.2445 89.4252" stroke="black" stroke-width="2" stroke-miterlimit="10"/>
</svg>
