<svg width="72" height="72" viewBox="0 0 72 72" fill="none" xmlns="http://www.w3.org/2000/svg">
<path d="M44.478 58.4352C44.478 58.4352 43.8408 63.522 49.4604 65.8548" stroke="black" stroke-width="2" stroke-miterlimit="10"/>
<path d="M27.522 58.4352C27.522 58.4352 28.1592 63.522 22.5396 65.8548" stroke="black" stroke-width="2" stroke-miterlimit="10"/>
<path d="M44.4564 59.3712C57.3984 64.2204 68.0544 52.3332 66.2508 35.6076C64.4616 18.9972 52.7076 5.35681 36 5.35681C19.2924 5.35681 7.54203 18.9972 5.74923 35.6076C3.94563 52.3332 14.6016 64.2204 27.5436 59.3712" stroke="black" stroke-width="2" stroke-miterlimit="10"/>
<path d="M24.7068 28.6811C21.546 33.5051 19.9008 37.2671 18.738 42.1379C18.9432 44.0531 19.4508 45.5759 19.9332 47.0627C21.6828 52.4303 28.9188 62.8847 36 62.8847C43.0812 62.8847 50.3172 52.4303 52.0668 47.0627C52.5528 45.5759 53.6148 41.9579 53.856 37.5119C40.9572 38.9519 28.9944 38.1743 19.5336 21.0815" stroke="black" stroke-width="2" stroke-miterlimit="10"/>
</svg>
