<svg width="72" height="72" viewBox="0 0 72 72" fill="none" xmlns="http://www.w3.org/2000/svg">
<path d="M24.3072 10.3068C24.8364 18.2052 39.0348 18.4464 46.1376 28.944C56.4264 44.1432 48.15 60.1632 38.61 65.412C57.996 63.2916 67.8132 42.1056 63.1044 26.2764C55.5732 0.953986 28.2024 0.478784 24.3072 10.3068Z" stroke="black" stroke-width="2" stroke-miterlimit="10"/>
<path d="M24.336 10.2347C24.336 10.2347 8.1828 16.0667 7.7364 34.9955C7.3116 53.0351 22.536 61.3043 30.8304 62.2007C18.7992 51.7067 17.0964 30.6107 31.518 17.9711" stroke="black" stroke-width="2" stroke-miterlimit="10"/>
<path d="M57.0024 30.1608C62.0496 40.6692 58.5144 56.0736 46.044 63.5184" stroke="black" stroke-width="2" stroke-miterlimit="10"/>
<path d="M24.1848 36.0504C24.1848 36.0504 27.8424 39.546 33.408 37.8252" stroke="black" stroke-width="2" stroke-miterlimit="10"/>
<path d="M50.2308 36.0504C50.2308 36.0504 46.5732 39.546 41.0076 37.8252" stroke="black" stroke-width="2" stroke-miterlimit="10"/>
</svg>
