<svg width="200" height="24" viewBox="0 0 200 24" fill="none" xmlns="http://www.w3.org/2000/svg">
<g clip-path="url(#clip0_53_904)">
<path d="M9.59563 5.22511C8.60178 4.08373 7.94211 3.42988 6.61697 3.42988C5.29184 3.42988 4.30089 4.41066 4.30089 5.87897C4.30089 9.14251 14.3934 8.98191 14.3934 16.4898C14.3934 20.5707 11.0864 23.8371 6.94826 23.8371C3.64122 23.8371 1.15659 22.0418 0 19.1023L2.48173 17.1436H2.81301C3.80687 19.2658 4.96346 20.4072 6.94826 20.4072C9.0987 20.4072 10.5866 18.7754 10.5866 16.4898C10.5866 11.9185 0.496927 12.2426 0.496927 5.8761C0.496927 2.61256 3.17626 0 6.61697 0C9.26435 0 11.2491 1.46831 12.4057 3.42701L9.92401 5.22224H9.59272L9.59563 5.22511Z" fill="black"/>
<path d="M25.474 0.490356L25.6397 0.65382V8.48862L35.0697 0.65382L35.4009 0.490356H39.7018L39.8675 0.65382L28.1243 10.2867L41.1926 23.1832L41.027 23.3466H36.7261L36.3948 23.1832L25.6426 12.4089V23.1832L25.4769 23.3466H22.4983L22.3326 23.1832V0.65382L22.4983 0.490356H25.4769H25.474Z" fill="black"/>
<path d="M51.2823 0.490356L51.4479 0.65382V23.1803L51.2823 23.3438H48.3065L48.1409 23.1803V0.65382L48.3065 0.490356H51.2823Z" fill="black"/>
<path d="M64.0193 0.490356L64.3506 0.65382L77.9158 18.1215V0.65382L78.0814 0.490356H81.0601L81.2257 0.65382V23.1803L81.0601 23.3438H77.9158L77.5845 23.1803L64.0193 5.7126V23.1803L63.8536 23.3438H60.8779L60.7122 23.1803V0.65382L60.8779 0.490356H64.0222H64.0193Z" fill="black"/>
<path d="M96.1132 0.490356C100.745 0.490356 103.556 2.77598 103.556 6.36646C103.556 8.16169 102.73 9.30594 101.571 10.1204C104.881 11.2646 106.369 13.5474 106.369 16.3234C106.369 20.2408 103.061 23.3438 98.595 23.3438H90.6557L90.4901 23.1803V0.65382L90.6557 0.490356H96.1161H96.1132ZM93.7971 9.30594H96.1132C98.595 9.30594 99.7516 8.49149 99.7516 6.36646C99.7516 4.57122 98.595 3.7539 96.1132 3.7539H93.7971V9.30307V9.30594ZM93.7971 20.0802H98.595C101.077 20.0802 102.565 18.6119 102.565 16.3263C102.565 14.2041 101.077 12.5724 98.595 12.5724H93.7971V20.0831V20.0802Z" fill="black"/>
<path d="M117.452 0.490356L117.618 0.65382V12.5695C117.618 17.6311 120.762 20.4043 124.566 20.4043C128.37 20.4043 131.514 17.6283 131.514 12.5695V0.65382L131.68 0.490356H134.656L134.821 0.65382V13.2233C134.821 19.9168 130.189 23.8342 124.563 23.8342C118.937 23.8342 114.308 19.9168 114.308 13.2233V0.65382L114.473 0.490356H117.452Z" fill="black"/>
<path d="M160.792 0.490356L160.958 0.65382V3.59044L160.792 3.7539H153.35V23.1803L153.184 23.3438H150.209L150.043 23.1803V3.7539H142.601L142.435 3.59044V0.65382L142.601 0.490356H160.798H160.792Z" fill="black"/>
<path d="M171.71 0.490356L171.876 0.65382V23.1803L171.71 23.3438H168.734L168.569 23.1803V0.65382L168.734 0.490356H171.71Z" fill="black"/>
<path d="M184.284 0.490356L184.45 0.65382V8.48862L193.88 0.65382L194.211 0.490356H198.512L198.678 0.65382L186.932 10.2867L200 23.1832L199.834 23.3466H195.533L195.202 23.1832L184.45 12.4089V23.1832L184.284 23.3466H181.309L181.143 23.1832V0.65382L181.309 0.490356H184.284V0.490356Z" fill="black"/>
</g>
<defs>
<clipPath id="clip0_53_904">
<rect width="200" height="23.8342" fill="white"/>
</clipPath>
</defs>
</svg>
