<svg width="96" height="96" viewBox="0 0 96 96" fill="none" xmlns="http://www.w3.org/2000/svg">
<path d="M53.6112 84.5712H35.448V32.1504H53.6112V62.6592" stroke="black" stroke-width="2" stroke-miterlimit="10"/>
<path d="M69.1296 71.8849H43.0272V84.5713H69.1296V71.8849Z" stroke="black" stroke-width="2" stroke-miterlimit="10"/>
<path d="M57.3072 62.6593V54.0817H77.0304V84.5713H57.3072" stroke="black" stroke-width="2" stroke-miterlimit="10"/>
<path d="M61.7328 40.9585H72.6096C75.0528 40.9585 77.0304 42.9409 77.0304 45.3793V54.0817H57.3072V45.3793C57.3072 42.9361 59.2896 40.9585 61.728 40.9585H61.7328Z" stroke="black" stroke-width="2" stroke-miterlimit="10"/>
<path d="M69.1296 62.6592H43.0272V71.8848H69.1296V62.6592Z" stroke="black" stroke-width="2" stroke-miterlimit="10"/>
<path d="M49.4496 19.3201H39.6096V32.1553H49.4496V19.3201Z" stroke="black" stroke-width="2" stroke-miterlimit="10"/>
<path d="M41.3472 11.0256H35.0688V13.9872H41.3472V19.32H47.712V13.9872V11.0256H41.3472Z" stroke="black" stroke-width="2" stroke-miterlimit="10"/>
<path d="M68.616 26.8224L76.512 13.1472" stroke="black" stroke-width="2" stroke-miterlimit="10"/>
<path d="M64.6656 19.9872H80.4624" stroke="black" stroke-width="2" stroke-miterlimit="10"/>
<path d="M68.616 13.1472L76.512 26.8224" stroke="black" stroke-width="2" stroke-miterlimit="10"/>
<path d="M10.8384 36.312L18.7344 22.632" stroke="black" stroke-width="2" stroke-miterlimit="10"/>
<path d="M6.888 29.4719H22.6848" stroke="black" stroke-width="2" stroke-miterlimit="10"/>
<path d="M10.8384 22.632L18.7344 36.312" stroke="black" stroke-width="2" stroke-miterlimit="10"/>
<path d="M23.2224 77.3376L31.1184 63.6576" stroke="black" stroke-width="2" stroke-miterlimit="10"/>
<path d="M19.272 70.4976H35.0688" stroke="black" stroke-width="2" stroke-miterlimit="10"/>
<path d="M23.2224 63.6576L31.1184 77.3376" stroke="black" stroke-width="2" stroke-miterlimit="10"/>
</svg>
