<svg width="96" height="96" viewBox="0 0 96 96" fill="none" xmlns="http://www.w3.org/2000/svg">
<path d="M55.9113 94.5712H33.5434V30.0151H55.9113V67.5866" stroke="black" stroke-width="2" stroke-miterlimit="10"/>
<path d="M75.0222 78.9479H42.8772V94.5712H75.0222V78.9479Z" stroke="black" stroke-width="2" stroke-miterlimit="10"/>
<path d="M60.463 67.5867V57.0234H84.7521V94.5713H60.463" stroke="black" stroke-width="2" stroke-miterlimit="10"/>
<path d="M65.9131 40.8622H79.3078C82.3166 40.8622 84.7521 43.3035 84.7521 46.3064V57.0234H60.463V46.3064C60.463 43.2976 62.9043 40.8622 65.9072 40.8622H65.9131Z" stroke="black" stroke-width="2" stroke-miterlimit="10"/>
<path d="M75.0222 67.5867H42.8772V78.948H75.0222V67.5867Z" stroke="black" stroke-width="2" stroke-miterlimit="10"/>
<path d="M50.7864 14.2145H38.6684V30.0211H50.7864V14.2145Z" stroke="black" stroke-width="2" stroke-miterlimit="10"/>
<path d="M40.8083 4H33.0764V7.6472H40.8083V14.2145H48.6465V7.6472V4H40.8083Z" stroke="black" stroke-width="2" stroke-miterlimit="10"/>
<path d="M74.3897 23.4537L84.1136 6.61273" stroke="black" stroke-width="2" stroke-miterlimit="10"/>
<path d="M69.5248 15.0362H88.9785" stroke="black" stroke-width="2" stroke-miterlimit="10"/>
<path d="M74.3897 6.61273L84.1136 23.4537" stroke="black" stroke-width="2" stroke-miterlimit="10"/>
<path d="M5.23676 35.14L14.9607 18.2932" stroke="black" stroke-width="2" stroke-miterlimit="10"/>
<path d="M0.371857 26.7166H19.8256" stroke="black" stroke-width="2" stroke-miterlimit="10"/>
<path d="M5.23676 18.2932L14.9607 35.14" stroke="black" stroke-width="2" stroke-miterlimit="10"/>
<path d="M18.4877 85.663L28.2116 68.8161" stroke="black" stroke-width="2" stroke-miterlimit="10"/>
<path d="M13.6228 77.2396H33.0765" stroke="black" stroke-width="2" stroke-miterlimit="10"/>
<path d="M18.4877 68.8161L28.2116 85.663" stroke="black" stroke-width="2" stroke-miterlimit="10"/>
</svg>
