<svg width="96" height="96" viewBox="0 0 96 96" fill="none" xmlns="http://www.w3.org/2000/svg">
<path d="M52.8281 16.3869C44.3611 16.1004 33.9949 21.9041 34.5626 35.3153C35.1515 49.1828 52.2551 53.1775 59.1783 47.3101C49.6874 46.8592 44.8863 40.5461 44.6953 35.6495C44.4407 29.0978 49.4063 26.7264 53.019 28.7052C58.9183 31.9413 54.3294 43.3684 45.7404 37.8512" stroke="black" stroke-width="2" stroke-miterlimit="10"/>
<path d="M44.7696 33.7981C44.1595 43.2624 60.2499 44.5091 64.9396 34.9228C69.8309 24.9281 61.5656 16.5408 52.4461 16.3763C59.2472 10.6681 72.876 12.8537 76.892 22.2861C81.3536 32.753 74.8018 48.3605 59.173 47.3101" stroke="black" stroke-width="2" stroke-miterlimit="10"/>
<path d="M39.8889 46.0794C34.2549 45.4003 21.7189 35.4109 26.5678 20.753C31.4113 6.12162 52.0164 4.46113 57.4859 13.8193" stroke="black" stroke-width="2" stroke-miterlimit="10"/>
<path d="M25.4802 27.2781C13.2997 44.8273 28.0957 62.3818 49.1622 49.9308" stroke="black" stroke-width="2" stroke-miterlimit="10"/>
<path d="M50.2498 61.4905C50.2498 61.4905 49.1622 87.2944 19.2149 94" stroke="black" stroke-width="2" stroke-miterlimit="10"/>
<path d="M45.9208 77.7718C45.9208 77.7718 52.1967 70.1378 62.4038 68.0688C72.6055 65.9999 81.9531 70.4933 81.9531 70.4933C81.9531 70.4933 73.6081 80.3395 64.3295 82.6949C55.0562 85.0504 45.9208 77.7718 45.9208 77.7718V77.7718Z" stroke="black" stroke-width="2" stroke-miterlimit="10"/>
<path d="M39.4592 82.8169C39.4592 82.8169 37.56 73.2572 32.1594 68.2651C26.7588 63.2731 14.2016 63.1988 14.2016 63.1988C14.2016 63.1988 14.9125 72.2598 20.9072 77.8938C26.902 83.5278 39.4592 82.8169 39.4592 82.8169V82.8169Z" stroke="black" stroke-width="2" stroke-miterlimit="10"/>
<path d="M38.9021 53.8513C41.3849 57.9468 46.7749 61.6922 54.3188 62.037C65.7831 62.5622 70.632 52.907 67.9847 45.8884" stroke="black" stroke-width="2" stroke-miterlimit="10"/>
<path d="M66.7805 55.7611C72.4888 55.9521 78.2926 53.0502 81.2422 48.0104C84.1918 42.9706 83.099 35.7876 77.8682 33.1562" stroke="black" stroke-width="2" stroke-miterlimit="10"/>
</svg>
