<svg width="96" height="96" viewBox="0 0 96 96" fill="none" xmlns="http://www.w3.org/2000/svg">
<path d="M44.9495 40.7141C44.9495 36.1635 41.2647 32.4787 36.7141 32.4787C32.1635 32.4787 28.4787 36.1635 28.4787 40.7141C28.4787 45.2646 32.1635 48.9495 36.7141 48.9495C41.2647 48.9495 44.9495 45.2646 44.9495 40.7141Z" stroke="black" stroke-width="2" stroke-miterlimit="10"/>
<path d="M58.3459 70.5813C62.8942 70.5813 66.5813 66.8942 66.5813 62.3459C66.5813 57.7976 62.8942 54.1105 58.3459 54.1105C53.7976 54.1105 50.1105 57.7976 50.1105 62.3459C50.1105 66.8942 53.7976 70.5813 58.3459 70.5813Z" stroke="black" stroke-width="2" stroke-miterlimit="10"/>
<path d="M30.8372 68.2228L64.2228 34.8372" stroke="black" stroke-width="2" stroke-miterlimit="10"/>
<path d="M47.53 9.06L56.6866 17.3453L68.7622 14.7537L72.5525 26.5075L84.3063 30.2978L81.7147 42.3678L90 51.53L81.7147 60.6866L84.3063 72.7622L72.5525 76.5525L68.7622 88.3063L56.6866 85.7147L47.53 94L38.3678 85.7147L26.2978 88.3063L22.5075 76.5525L10.7537 72.7622L13.3453 60.6866L5.06 51.53L13.3453 42.3678L10.7537 30.2978L22.5075 26.5075L26.2978 14.7537L38.3678 17.3453L47.53 9.06Z" stroke="black" stroke-width="2" stroke-miterlimit="10"/>
</svg>
