<svg width="96" height="96" viewBox="0 0 96 96" fill="none" xmlns="http://www.w3.org/2000/svg">
<path d="M45.8328 51.9625C45.8328 48.1408 42.7381 45.0461 38.9164 45.0461C35.0947 45.0461 32 48.1408 32 51.9625C32 55.7843 35.0947 58.8789 38.9164 58.8789C42.7381 58.8789 45.8328 55.7843 45.8328 51.9625Z" stroke="black" stroke-width="2" stroke-miterlimit="10"/>
<path d="M57.0836 77.0461C60.9034 77.0461 64 73.9495 64 70.1297C64 66.3098 60.9034 63.2133 57.0836 63.2133C53.2638 63.2133 50.1672 66.3098 50.1672 70.1297C50.1672 73.9495 53.2638 77.0461 57.0836 77.0461Z" stroke="black" stroke-width="2" stroke-miterlimit="10"/>
<path d="M33.9808 75.0654L62.0192 47.0269" stroke="black" stroke-width="2" stroke-miterlimit="10"/>
<path d="M77.2896 26H18.7104L16 92H80L77.2896 26Z" stroke="black" stroke-width="2" stroke-miterlimit="10"/>
<path d="M32 33V22.2161C32 13.261 39.1642 6 48 6C56.8358 6 64 13.261 64 22.2161V33" stroke="black" stroke-width="2" stroke-miterlimit="10"/>
</svg>
