<svg width="96" height="96" viewBox="0 0 96 96" fill="none" xmlns="http://www.w3.org/2000/svg">
<path d="M45.2211 46.3225C45.2211 42.2509 41.9241 38.9539 37.8525 38.9539C33.7809 38.9539 30.4839 42.2509 30.4839 46.3225C30.4839 50.3941 33.7809 53.6911 37.8525 53.6911C41.9241 53.6911 45.2211 50.3941 45.2211 46.3225Z" stroke="black" stroke-width="2" stroke-miterlimit="10"/>
<path d="M57.2075 73.0461C61.2771 73.0461 64.5761 69.7471 64.5761 65.6775C64.5761 61.6079 61.2771 58.3089 57.2075 58.3089C53.1379 58.3089 49.8389 61.6079 49.8389 65.6775C49.8389 69.7471 53.1379 73.0461 57.2075 73.0461Z" stroke="black" stroke-width="2" stroke-miterlimit="10"/>
<path d="M32.5941 70.9358L62.4658 41.0641" stroke="black" stroke-width="2" stroke-miterlimit="10"/>
<path d="M47.53 18L55.7229 25.4133L66.5275 23.0945L69.9189 33.6111L80.4355 37.0025L78.1167 47.8022L85.53 56L78.1167 64.1929L80.4355 74.9975L69.9189 78.3889L66.5275 88.9055L55.7229 86.5867L47.53 94L39.3322 86.5867L28.5325 88.9055L25.1411 78.3889L14.6245 74.9975L16.9433 64.1929L9.53 56L16.9433 47.8022L14.6245 37.0025L25.1411 33.6111L28.5325 23.0945L39.3322 25.4133L47.53 18Z" stroke="black" stroke-width="2" stroke-miterlimit="10"/>
</svg>
